<svg xmlns="http://www.w3.org/2000/svg" width="1920" height="1200" viewBox="0 0 1920 1200">
  <defs>
    <linearGradient id="base" x1="0" y1="0" x2="1" y2="1">
      <stop offset="0" stop-color="#1d2021"/>
      <stop offset="0.55" stop-color="#202324"/>
      <stop offset="1" stop-color="#282828"/>
    </linearGradient>
    <radialGradient id="warmGlow" cx="72%" cy="24%" r="48%">
      <stop offset="0" stop-color="#fabd2f" stop-opacity="0.28"/>
      <stop offset="0.36" stop-color="#d79921" stop-opacity="0.11"/>
      <stop offset="1" stop-color="#1d2021" stop-opacity="0"/>
    </radialGradient>
    <radialGradient id="aquaGlow" cx="24%" cy="78%" r="52%">
      <stop offset="0" stop-color="#8ec07c" stop-opacity="0.18"/>
      <stop offset="0.45" stop-color="#689d6a" stop-opacity="0.08"/>
      <stop offset="1" stop-color="#1d2021" stop-opacity="0"/>
    </radialGradient>
    <filter id="soft" x="-20%" y="-20%" width="140%" height="140%">
      <feGaussianBlur stdDeviation="22"/>
    </filter>
    <pattern id="grain" width="64" height="64" patternUnits="userSpaceOnUse">
      <path d="M0 63H64M63 0V64" stroke="#fbf1c7" stroke-opacity="0.025"/>
      <circle cx="12" cy="18" r="1" fill="#fbf1c7" fill-opacity="0.035"/>
      <circle cx="42" cy="47" r="1" fill="#8ec07c" fill-opacity="0.03"/>
    </pattern>
  </defs>

  <rect width="1920" height="1200" fill="url(#base)"/>
  <rect width="1920" height="1200" fill="url(#warmGlow)"/>
  <rect width="1920" height="1200" fill="url(#aquaGlow)"/>

  <g filter="url(#soft)" opacity="0.72">
    <ellipse cx="1515" cy="245" rx="230" ry="145" fill="#fabd2f" opacity="0.22"/>
    <ellipse cx="395" cy="940" rx="330" ry="175" fill="#8ec07c" opacity="0.16"/>
    <ellipse cx="1060" cy="790" rx="450" ry="230" fill="#83a598" opacity="0.08"/>
  </g>

  <path d="M0 1200L0 780L350 520L725 865L1040 650L1485 1065L1920 820L1920 1200Z" fill="#282828" opacity="0.88"/>
  <path d="M0 1200L0 925L455 700L820 1045L1230 770L1705 1200Z" fill="#32302f" opacity="0.92"/>
  <path d="M540 1200L1015 735L1510 1200Z" fill="#3c3836" opacity="0.7"/>

  <path d="M0 780L350 520L725 865" fill="none" stroke="#fbf1c7" stroke-opacity="0.12" stroke-width="3"/>
  <path d="M725 865L1040 650L1485 1065L1920 820" fill="none" stroke="#8ec07c" stroke-opacity="0.16" stroke-width="3"/>
  <path d="M455 700L820 1045L1230 770" fill="none" stroke="#fabd2f" stroke-opacity="0.13" stroke-width="2"/>

  <circle cx="1515" cy="245" r="68" fill="#fabd2f"/>
  <circle cx="1515" cy="245" r="92" fill="none" stroke="#fbf1c7" stroke-opacity="0.10" stroke-width="2"/>

  <g opacity="0.22">
    <path d="M1220 170H1730" stroke="#fbf1c7" stroke-width="1"/>
    <path d="M1290 214H1810" stroke="#8ec07c" stroke-width="1"/>
    <path d="M1150 300H1620" stroke="#fabd2f" stroke-width="1"/>
  </g>

  <rect width="1920" height="1200" fill="url(#grain)"/>
  <rect width="1920" height="1200" fill="#000000" opacity="0.10"/>
</svg>
